# This file uses centimeters as units for non-parametric coordinates.

g default
v 0.690975 1.090658 2.394229
v 0.712437 0.936121 2.382854
v 0.774720 0.796653 2.349074
v 0.871727 0.685905 2.296195
v 0.993964 0.614719 2.229394
v 1.129465 0.590062 2.155210
v 1.264966 0.614349 2.080903
v 1.387203 0.685202 2.013749
v 1.484211 0.795685 1.960320
v 1.546494 0.934984 1.925846
v 1.567955 1.089463 1.913702
v 1.546494 1.244000 1.925077
v 1.484211 1.383469 1.958858
v 1.387203 1.494217 2.011736
v 1.264966 1.565403 2.078537
v 1.129465 1.590059 2.152722
v 0.993964 1.565773 2.227028
v 0.871727 1.494920 2.294183
v 0.774719 1.384436 2.347612
v 0.712436 1.245137 2.382086
v 1.171504 1.092840 3.271206
v 1.192965 0.938303 3.259831
v 1.255248 0.798834 3.226051
v 1.352256 0.688087 3.173172
v 1.474493 0.616900 3.106371
v 1.609993 0.592244 3.032186
v 1.745494 0.616531 2.957880
v 1.867731 0.687384 2.890725
v 1.964739 0.797867 2.837296
v 2.027022 0.937166 2.802823
v 2.048483 1.091645 2.790679
v 2.027022 1.246182 2.802054
v 1.964739 1.385651 2.835834
v 1.867731 1.496399 2.888713
v 1.745494 1.567585 2.955514
v 1.609993 1.592241 3.029699
v 1.474492 1.567954 3.104005
v 1.352255 1.497101 3.171159
v 1.255247 1.386618 3.224589
v 1.192965 1.247319 3.259062
v 0.733014 1.093438 3.511469
v 0.775936 0.784363 3.488719
v 0.900502 0.505426 3.421159
v 1.094518 0.283931 3.315402
v 1.338992 0.141558 3.181799
v 1.609993 0.092245 3.033430
v 1.880995 0.140819 2.884817
v 2.125469 0.282525 2.750508
v 2.319485 0.503492 2.643650
v 2.444050 0.782089 2.574703
v 2.486973 1.091047 2.550416
v 2.444050 1.400122 2.573165
v 2.319485 1.679059 2.640726
v 2.125469 1.900555 2.746483
v 1.880995 2.042927 2.880085
v 1.609993 2.092240 3.028455
v 1.338992 2.043666 3.177067
v 1.094518 1.901960 3.311376
v 0.900502 1.680993 3.418235
v 0.775936 1.402396 3.487182
v 0.252486 1.091256 2.634493
v 0.295408 0.782182 2.611743
v 0.419974 0.503244 2.544182
v 0.613990 0.281749 2.438425
v 0.858464 0.139377 2.304823
v 1.129465 0.090064 2.156454
v 1.400467 0.138638 2.007841
v 1.644941 0.280343 1.873532
v 1.838956 0.501310 1.766674
v 1.963522 0.779908 1.697726
v 2.006445 1.088865 1.673439
v 1.963522 1.397940 1.696189
v 1.838956 1.676877 1.763749
v 1.644941 1.898373 1.869507
v 1.400467 2.040745 2.003109
v 1.129465 2.090058 2.151478
v 0.858463 2.041484 2.300091
v 0.613989 1.899778 2.434400
v 0.419973 1.678812 2.541258
v 0.295408 1.400214 2.610205
vt 0.000000 1.000000
vt 0.050000 1.000000
vt 0.100000 1.000000
vt 0.150000 1.000000
vt 0.200000 1.000000
vt 0.250000 1.000000
vt 0.300000 1.000000
vt 0.350000 1.000000
vt 0.400000 1.000000
vt 0.450000 1.000000
vt 0.500000 1.000000
vt 0.550000 1.000000
vt 0.600000 1.000000
vt 0.650000 1.000000
vt 0.700000 1.000000
vt 0.750000 1.000000
vt 0.800000 1.000000
vt 0.850000 1.000000
vt 0.900000 1.000000
vt 0.950000 1.000000
vt 1.000000 1.000000
vt 0.000000 0.750000
vt 0.050000 0.750000
vt 0.100000 0.750000
vt 0.150000 0.750000
vt 0.200000 0.750000
vt 0.250000 0.750000
vt 0.300000 0.750000
vt 0.350000 0.750000
vt 0.400000 0.750000
vt 0.450000 0.750000
vt 0.500000 0.750000
vt 0.550000 0.750000
vt 0.600000 0.750000
vt 0.650000 0.750000
vt 0.700000 0.750000
vt 0.750000 0.750000
vt 0.800000 0.750000
vt 0.850000 0.750000
vt 0.900000 0.750000
vt 0.950000 0.750000
vt 1.000000 0.750000
vt 0.000000 0.500000
vt 0.050000 0.500000
vt 0.100000 0.500000
vt 0.150000 0.500000
vt 0.200000 0.500000
vt 0.250000 0.500000
vt 0.300000 0.500000
vt 0.350000 0.500000
vt 0.400000 0.500000
vt 0.450000 0.500000
vt 0.500000 0.500000
vt 0.550000 0.500000
vt 0.600000 0.500000
vt 0.650000 0.500000
vt 0.700000 0.500000
vt 0.750000 0.500000
vt 0.800000 0.500000
vt 0.850000 0.500000
vt 0.900000 0.500000
vt 0.950000 0.500000
vt 1.000000 0.500000
vt 0.000000 0.250000
vt 0.050000 0.250000
vt 0.100000 0.250000
vt 0.150000 0.250000
vt 0.200000 0.250000
vt 0.250000 0.250000
vt 0.300000 0.250000
vt 0.350000 0.250000
vt 0.400000 0.250000
vt 0.450000 0.250000
vt 0.500000 0.250000
vt 0.550000 0.250000
vt 0.600000 0.250000
vt 0.650000 0.250000
vt 0.700000 0.250000
vt 0.750000 0.250000
vt 0.800000 0.250000
vt 0.850000 0.250000
vt 0.900000 0.250000
vt 0.950000 0.250000
vt 1.000000 0.250000
vt 0.000000 0.000000
vt 0.050000 0.000000
vt 0.100000 0.000000
vt 0.150000 0.000000
vt 0.200000 0.000000
vt 0.250000 0.000000
vt 0.300000 0.000000
vt 0.350000 0.000000
vt 0.400000 0.000000
vt 0.450000 0.000000
vt 0.500000 0.000000
vt 0.550000 0.000000
vt 0.600000 0.000000
vt 0.650000 0.000000
vt 0.700000 0.000000
vt 0.750000 0.000000
vt 0.800000 0.000000
vt 0.850000 0.000000
vt 0.900000 0.000000
vt 0.950000 0.000000
vt 1.000000 0.000000
vn 0.834057 0.307879 -0.457777
vn 0.876979 -0.001194 -0.480527
vn 0.876979 -0.001194 -0.480527
vn 0.834057 0.307879 -0.457777
vn 0.709491 0.586816 -0.390217
vn 0.709491 0.586816 -0.390217
vn 0.515476 0.808312 -0.284459
vn 0.515476 0.808312 -0.284459
vn 0.271002 0.950684 -0.150857
vn 0.271002 0.950684 -0.150857
vn 0.000000 0.999997 -0.002488
vn 0.000000 0.999997 -0.002488
vn -0.271001 0.951423 0.146125
vn -0.271001 0.951423 0.146125
vn -0.515475 0.809717 0.280434
vn -0.515475 0.809717 0.280434
vn -0.709491 0.588751 0.387292
vn -0.709491 0.588751 0.387292
vn -0.834057 0.310153 0.456239
vn -0.834057 0.310153 0.456239
vn -0.876979 0.001195 0.480527
vn -0.876979 0.001195 0.480527
vn -0.834057 -0.307879 0.457777
vn -0.834057 -0.307879 0.457777
vn -0.709491 -0.586816 0.390217
vn -0.709491 -0.586816 0.390217
vn -0.515476 -0.808312 0.284459
vn -0.515476 -0.808312 0.284459
vn -0.271002 -0.950684 0.150857
vn -0.271002 -0.950684 0.150857
vn -0.000000 -0.999997 0.002488
vn -0.000000 -0.999997 0.002488
vn 0.271001 -0.951423 -0.146125
vn 0.271001 -0.951423 -0.146125
vn 0.515475 -0.809717 -0.280434
vn 0.515475 -0.809717 -0.280434
vn 0.709491 -0.588751 -0.387292
vn 0.709491 -0.588751 -0.387292
vn 0.834057 -0.310152 -0.456239
vn 0.834057 -0.310152 -0.456239
vn 0.480528 0.002182 0.876977
vn 0.480528 0.002182 0.876977
vn 0.480528 0.002182 0.876977
vn 0.480528 0.002182 0.876977
vn 0.480528 0.002182 0.876977
vn 0.480528 0.002182 0.876977
vn 0.480528 0.002182 0.876977
vn 0.480528 0.002182 0.876977
vn 0.480528 0.002182 0.876977
vn 0.480528 0.002182 0.876977
vn 0.480528 0.002182 0.876977
vn 0.480528 0.002182 0.876977
vn 0.480528 0.002182 0.876977
vn 0.480528 0.002182 0.876977
vn 0.480528 0.002182 0.876977
vn 0.480528 0.002182 0.876977
vn 0.480528 0.002182 0.876977
vn 0.480528 0.002182 0.876977
vn 0.480528 0.002182 0.876977
vn 0.480528 0.002182 0.876977
vn 0.480528 0.002182 0.876977
vn 0.480528 0.002182 0.876977
vn 0.480528 0.002182 0.876977
vn 0.480528 0.002182 0.876977
vn 0.480528 0.002182 0.876977
vn 0.480528 0.002182 0.876977
vn 0.480528 0.002182 0.876977
vn 0.480528 0.002182 0.876977
vn 0.480528 0.002182 0.876977
vn 0.480528 0.002182 0.876977
vn 0.480528 0.002182 0.876977
vn 0.480528 0.002182 0.876977
vn 0.480528 0.002182 0.876977
vn 0.480528 0.002182 0.876977
vn 0.480528 0.002182 0.876977
vn 0.480528 0.002182 0.876977
vn 0.480528 0.002182 0.876977
vn 0.480528 0.002182 0.876977
vn 0.480528 0.002182 0.876977
vn 0.480528 0.002182 0.876977
vn -0.834057 -0.307879 0.457777
vn -0.876979 0.001194 0.480527
vn -0.876979 0.001194 0.480527
vn -0.834057 -0.307879 0.457777
vn -0.709491 -0.586816 0.390217
vn -0.709491 -0.586816 0.390217
vn -0.515476 -0.808312 0.284459
vn -0.515476 -0.808312 0.284459
vn -0.271002 -0.950684 0.150857
vn -0.271002 -0.950684 0.150857
vn -0.000000 -0.999997 0.002488
vn -0.000000 -0.999997 0.002488
vn 0.271001 -0.951423 -0.146125
vn 0.271001 -0.951423 -0.146125
vn 0.515475 -0.809717 -0.280434
vn 0.515475 -0.809717 -0.280434
vn 0.709491 -0.588751 -0.387292
vn 0.709491 -0.588751 -0.387292
vn 0.834057 -0.310153 -0.456239
vn 0.834057 -0.310153 -0.456239
vn 0.876979 -0.001195 -0.480527
vn 0.876979 -0.001195 -0.480527
vn 0.834057 0.307879 -0.457777
vn 0.834057 0.307879 -0.457777
vn 0.709491 0.586816 -0.390217
vn 0.709491 0.586816 -0.390217
vn 0.515476 0.808312 -0.284459
vn 0.515476 0.808312 -0.284459
vn 0.271002 0.950684 -0.150857
vn 0.271002 0.950684 -0.150857
vn 0.000000 0.999997 -0.002488
vn 0.000000 0.999997 -0.002488
vn -0.271001 0.951423 0.146125
vn -0.271001 0.951423 0.146125
vn -0.515475 0.809717 0.280434
vn -0.515475 0.809717 0.280434
vn -0.709491 0.588751 0.387292
vn -0.709491 0.588751 0.387292
vn -0.834057 0.310152 0.456239
vn -0.834057 0.310152 0.456239
vn -0.480528 -0.002182 -0.876977
vn -0.480528 -0.002182 -0.876977
vn -0.480528 -0.002182 -0.876977
vn -0.480528 -0.002182 -0.876977
vn -0.480528 -0.002182 -0.876977
vn -0.480528 -0.002182 -0.876977
vn -0.480528 -0.002182 -0.876977
vn -0.480528 -0.002182 -0.876977
vn -0.480528 -0.002182 -0.876977
vn -0.480528 -0.002182 -0.876977
vn -0.480528 -0.002182 -0.876977
vn -0.480528 -0.002182 -0.876977
vn -0.480528 -0.002182 -0.876977
vn -0.480528 -0.002182 -0.876977
vn -0.480528 -0.002182 -0.876977
vn -0.480528 -0.002182 -0.876977
vn -0.480528 -0.002182 -0.876977
vn -0.480528 -0.002182 -0.876977
vn -0.480528 -0.002182 -0.876977
vn -0.480528 -0.002182 -0.876977
vn -0.480528 -0.002182 -0.876977
vn -0.480528 -0.002182 -0.876977
vn -0.480528 -0.002182 -0.876977
vn -0.480528 -0.002182 -0.876977
vn -0.480528 -0.002182 -0.876977
vn -0.480528 -0.002182 -0.876977
vn -0.480528 -0.002182 -0.876977
vn -0.480528 -0.002182 -0.876977
vn -0.480528 -0.002182 -0.876977
vn -0.480528 -0.002182 -0.876977
vn -0.480528 -0.002182 -0.876977
vn -0.480528 -0.002182 -0.876977
vn -0.480528 -0.002182 -0.876977
vn -0.480528 -0.002182 -0.876977
vn -0.480528 -0.002182 -0.876977
vn -0.480528 -0.002182 -0.876977
vn -0.480528 -0.002182 -0.876977
vn -0.480528 -0.002182 -0.876977
vn -0.480528 -0.002182 -0.876977
vn -0.480528 -0.002182 -0.876977
s 1
g pPipe1
f 2/2/1 1/1/2 21/22/3 22/23/4
f 3/3/5 2/2/1 22/23/4 23/24/6
f 4/4/7 3/3/5 23/24/6 24/25/8
f 5/5/9 4/4/7 24/25/8 25/26/10
f 6/6/11 5/5/9 25/26/10 26/27/12
f 7/7/13 6/6/11 26/27/12 27/28/14
f 8/8/15 7/7/13 27/28/14 28/29/16
f 9/9/17 8/8/15 28/29/16 29/30/18
f 10/10/19 9/9/17 29/30/18 30/31/20
f 11/11/21 10/10/19 30/31/20 31/32/22
f 12/12/23 11/11/21 31/32/22 32/33/24
f 13/13/25 12/12/23 32/33/24 33/34/26
f 14/14/27 13/13/25 33/34/26 34/35/28
f 15/15/29 14/14/27 34/35/28 35/36/30
f 16/16/31 15/15/29 35/36/30 36/37/32
f 17/17/33 16/16/31 36/37/32 37/38/34
f 18/18/35 17/17/33 37/38/34 38/39/36
f 19/19/37 18/18/35 38/39/36 39/40/38
f 20/20/39 19/19/37 39/40/38 40/41/40
f 1/21/2 20/20/39 40/41/40 21/42/3
s 2
f 22/23/41 21/22/42 41/43/43 42/44/44
f 23/24/45 22/23/41 42/44/44 43/45/46
f 24/25/47 23/24/45 43/45/46 44/46/48
f 25/26/49 24/25/47 44/46/48 45/47/50
f 26/27/51 25/26/49 45/47/50 46/48/52
f 27/28/53 26/27/51 46/48/52 47/49/54
f 28/29/55 27/28/53 47/49/54 48/50/56
f 29/30/57 28/29/55 48/50/56 49/51/58
f 30/31/59 29/30/57 49/51/58 50/52/60
f 31/32/61 30/31/59 50/52/60 51/53/62
f 32/33/63 31/32/61 51/53/62 52/54/64
f 33/34/65 32/33/63 52/54/64 53/55/66
f 34/35/67 33/34/65 53/55/66 54/56/68
f 35/36/69 34/35/67 54/56/68 55/57/70
f 36/37/71 35/36/69 55/57/70 56/58/72
f 37/38/73 36/37/71 56/58/72 57/59/74
f 38/39/75 37/38/73 57/59/74 58/60/76
f 39/40/77 38/39/75 58/60/76 59/61/78
f 40/41/79 39/40/77 59/61/78 60/62/80
f 21/42/42 40/41/79 60/62/80 41/63/43
s 3
f 42/44/81 41/43/82 61/64/83 62/65/84
f 43/45/85 42/44/81 62/65/84 63/66/86
f 44/46/87 43/45/85 63/66/86 64/67/88
f 45/47/89 44/46/87 64/67/88 65/68/90
f 46/48/91 45/47/89 65/68/90 66/69/92
f 47/49/93 46/48/91 66/69/92 67/70/94
f 48/50/95 47/49/93 67/70/94 68/71/96
f 49/51/97 48/50/95 68/71/96 69/72/98
f 50/52/99 49/51/97 69/72/98 70/73/100
f 51/53/101 50/52/99 70/73/100 71/74/102
f 52/54/103 51/53/101 71/74/102 72/75/104
f 53/55/105 52/54/103 72/75/104 73/76/106
f 54/56/107 53/55/105 73/76/106 74/77/108
f 55/57/109 54/56/107 74/77/108 75/78/110
f 56/58/111 55/57/109 75/78/110 76/79/112
f 57/59/113 56/58/111 76/79/112 77/80/114
f 58/60/115 57/59/113 77/80/114 78/81/116
f 59/61/117 58/60/115 78/81/116 79/82/118
f 60/62/119 59/61/117 79/82/118 80/83/120
f 41/63/82 60/62/119 80/83/120 61/84/83
s 4
f 62/65/121 61/64/122 1/85/123 2/86/124
f 63/66/125 62/65/121 2/86/124 3/87/126
f 64/67/127 63/66/125 3/87/126 4/88/128
f 65/68/129 64/67/127 4/88/128 5/89/130
f 66/69/131 65/68/129 5/89/130 6/90/132
f 67/70/133 66/69/131 6/90/132 7/91/134
f 68/71/135 67/70/133 7/91/134 8/92/136
f 69/72/137 68/71/135 8/92/136 9/93/138
f 70/73/139 69/72/137 9/93/138 10/94/140
f 71/74/141 70/73/139 10/94/140 11/95/142
f 72/75/143 71/74/141 11/95/142 12/96/144
f 73/76/145 72/75/143 12/96/144 13/97/146
f 74/77/147 73/76/145 13/97/146 14/98/148
f 75/78/149 74/77/147 14/98/148 15/99/150
f 76/79/151 75/78/149 15/99/150 16/100/152
f 77/80/153 76/79/151 16/100/152 17/101/154
f 78/81/155 77/80/153 17/101/154 18/102/156
f 79/82/157 78/81/155 18/102/156 19/103/158
f 80/83/159 79/82/157 19/103/158 20/104/160
f 61/84/122 80/83/159 20/104/160 1/105/123
